<mxfile host="app.diagrams.net" agent="Mozilla/5.0 (Windows NT 10.0; Win64; x64) AppleWebKit/537.36 (KHTML, like Gecko) Chrome/130.0.0.0 Safari/537.36" version="24.8.4">
  <diagram name="Page-1" id="5YZ_Tjy6iMuPuW3nk5OJ">
    <mxGraphModel dx="322" dy="346" grid="1" gridSize="10" guides="1" tooltips="1" connect="1" arrows="1" fold="1" page="1" pageScale="1" pageWidth="850" pageHeight="1100" math="0" shadow="0">
      <root>
        <mxCell id="0" />
        <mxCell id="1" parent="0" />
        <mxCell id="6NBGL7Iew6p-0OX8bnVb-1" value="customer" style="shape=umlActor;verticalLabelPosition=bottom;verticalAlign=top;html=1;outlineConnect=0;" parent="1" vertex="1">
          <mxGeometry x="100" y="90" width="20" height="40" as="geometry" />
        </mxCell>
        <mxCell id="6NBGL7Iew6p-0OX8bnVb-2" value="" style="endArrow=none;dashed=1;html=1;rounded=0;" parent="1" edge="1">
          <mxGeometry width="50" height="50" relative="1" as="geometry">
            <mxPoint x="110" y="640" as="sourcePoint" />
            <mxPoint x="110" y="160" as="targetPoint" />
          </mxGeometry>
        </mxCell>
        <mxCell id="6NBGL7Iew6p-0OX8bnVb-3" value="&lt;div&gt;&lt;span style=&quot;font-size: 11px;&quot;&gt;&amp;lt;&amp;lt; view Layer &amp;gt;&amp;gt;&lt;/span&gt;&lt;/div&gt;&lt;span style=&quot;font-size: 11px;&quot;&gt;Package&lt;/span&gt;" style="rounded=0;whiteSpace=wrap;html=1;" parent="1" vertex="1">
          <mxGeometry x="220" y="120" width="100" height="30" as="geometry" />
        </mxCell>
        <mxCell id="6NBGL7Iew6p-0OX8bnVb-4" value="&lt;font style=&quot;font-size: 11px;&quot;&gt;&amp;lt;&amp;lt; controller &amp;gt;&amp;gt;&lt;/font&gt;&lt;div&gt;&lt;font style=&quot;font-size: 11px;&quot;&gt;PackageHandler&lt;/font&gt;&lt;/div&gt;" style="rounded=0;whiteSpace=wrap;html=1;" parent="1" vertex="1">
          <mxGeometry x="370" y="120" width="110" height="30" as="geometry" />
        </mxCell>
        <mxCell id="6NBGL7Iew6p-0OX8bnVb-7" value="&lt;font style=&quot;font-size: 11px;&quot;&gt;:person&lt;/font&gt;" style="rounded=0;whiteSpace=wrap;html=1;" parent="1" vertex="1">
          <mxGeometry x="530" y="160" width="70" height="24" as="geometry" />
        </mxCell>
        <mxCell id="6NBGL7Iew6p-0OX8bnVb-8" value="&lt;font style=&quot;font-size: 11px;&quot;&gt;:personDA&lt;/font&gt;" style="rounded=0;whiteSpace=wrap;html=1;" parent="1" vertex="1">
          <mxGeometry x="620" y="136" width="70" height="24" as="geometry" />
        </mxCell>
        <mxCell id="6NBGL7Iew6p-0OX8bnVb-9" value="&lt;font style=&quot;font-size: 11px;&quot;&gt;customer&lt;/font&gt;" style="rounded=0;whiteSpace=wrap;html=1;" parent="1" vertex="1">
          <mxGeometry x="750" y="162" width="70" height="24" as="geometry" />
        </mxCell>
        <mxCell id="6NBGL7Iew6p-0OX8bnVb-10" value="&lt;font style=&quot;font-size: 11px;&quot;&gt;:customerDA&lt;/font&gt;" style="rounded=0;whiteSpace=wrap;html=1;" parent="1" vertex="1">
          <mxGeometry x="840" y="136" width="70" height="24" as="geometry" />
        </mxCell>
        <mxCell id="6NBGL7Iew6p-0OX8bnVb-12" value="" style="endArrow=none;dashed=1;html=1;rounded=0;entryX=0.5;entryY=1;entryDx=0;entryDy=0;" parent="1" target="6NBGL7Iew6p-0OX8bnVb-3" edge="1">
          <mxGeometry width="50" height="50" relative="1" as="geometry">
            <mxPoint x="270" y="640" as="sourcePoint" />
            <mxPoint x="640" y="370" as="targetPoint" />
          </mxGeometry>
        </mxCell>
        <mxCell id="6NBGL7Iew6p-0OX8bnVb-14" value="" style="endArrow=classic;html=1;rounded=0;" parent="1" edge="1">
          <mxGeometry width="50" height="50" relative="1" as="geometry">
            <mxPoint x="110" y="270" as="sourcePoint" />
            <mxPoint x="260" y="270" as="targetPoint" />
          </mxGeometry>
        </mxCell>
        <mxCell id="6NBGL7Iew6p-0OX8bnVb-16" value="" style="endArrow=none;dashed=1;html=1;rounded=0;entryX=0.5;entryY=1;entryDx=0;entryDy=0;" parent="1" target="6NBGL7Iew6p-0OX8bnVb-4" edge="1">
          <mxGeometry width="50" height="50" relative="1" as="geometry">
            <mxPoint x="425" y="640" as="sourcePoint" />
            <mxPoint x="640" y="210" as="targetPoint" />
          </mxGeometry>
        </mxCell>
        <mxCell id="6NBGL7Iew6p-0OX8bnVb-18" value="&lt;font style=&quot;font-size: 11px;&quot;&gt;package&lt;/font&gt;" style="rounded=0;whiteSpace=wrap;html=1;" parent="1" vertex="1">
          <mxGeometry x="950" y="263" width="70" height="24" as="geometry" />
        </mxCell>
        <mxCell id="6NBGL7Iew6p-0OX8bnVb-19" value="&lt;font style=&quot;font-size: 11px;&quot;&gt;:packageDA&lt;/font&gt;" style="rounded=0;whiteSpace=wrap;html=1;" parent="1" vertex="1">
          <mxGeometry x="1050" y="239" width="70" height="24" as="geometry" />
        </mxCell>
        <mxCell id="6NBGL7Iew6p-0OX8bnVb-20" value="" style="endArrow=classic;html=1;rounded=0;entryX=-0.131;entryY=0.06;entryDx=0;entryDy=0;entryPerimeter=0;" parent="1" target="6NBGL7Iew6p-0OX8bnVb-37" edge="1">
          <mxGeometry width="50" height="50" relative="1" as="geometry">
            <mxPoint x="275" y="290" as="sourcePoint" />
            <mxPoint x="410" y="290" as="targetPoint" />
          </mxGeometry>
        </mxCell>
        <mxCell id="6NBGL7Iew6p-0OX8bnVb-22" value="" style="endArrow=none;dashed=1;html=1;rounded=0;entryX=0.5;entryY=1;entryDx=0;entryDy=0;" parent="1" target="6NBGL7Iew6p-0OX8bnVb-7" edge="1">
          <mxGeometry width="50" height="50" relative="1" as="geometry">
            <mxPoint x="565" y="640" as="sourcePoint" />
            <mxPoint x="580" y="270" as="targetPoint" />
          </mxGeometry>
        </mxCell>
        <mxCell id="6NBGL7Iew6p-0OX8bnVb-23" value="" style="endArrow=none;dashed=1;html=1;rounded=0;entryX=0.5;entryY=1;entryDx=0;entryDy=0;" parent="1" target="6NBGL7Iew6p-0OX8bnVb-8" edge="1">
          <mxGeometry width="50" height="50" relative="1" as="geometry">
            <mxPoint x="655" y="640" as="sourcePoint" />
            <mxPoint x="580" y="170" as="targetPoint" />
          </mxGeometry>
        </mxCell>
        <mxCell id="6NBGL7Iew6p-0OX8bnVb-24" value="" style="endArrow=none;dashed=1;html=1;rounded=0;entryX=0.5;entryY=1;entryDx=0;entryDy=0;" parent="1" edge="1">
          <mxGeometry width="50" height="50" relative="1" as="geometry">
            <mxPoint x="785" y="640" as="sourcePoint" />
            <mxPoint x="784.57" y="188" as="targetPoint" />
          </mxGeometry>
        </mxCell>
        <mxCell id="6NBGL7Iew6p-0OX8bnVb-25" value="" style="endArrow=none;dashed=1;html=1;rounded=0;entryX=0.5;entryY=1;entryDx=0;entryDy=0;" parent="1" edge="1">
          <mxGeometry width="50" height="50" relative="1" as="geometry">
            <mxPoint x="880" y="640" as="sourcePoint" />
            <mxPoint x="880" y="162" as="targetPoint" />
          </mxGeometry>
        </mxCell>
        <mxCell id="6NBGL7Iew6p-0OX8bnVb-26" value="" style="endArrow=none;dashed=1;html=1;rounded=0;entryX=0.5;entryY=1;entryDx=0;entryDy=0;" parent="1" edge="1">
          <mxGeometry width="50" height="50" relative="1" as="geometry">
            <mxPoint x="985" y="640" as="sourcePoint" />
            <mxPoint x="984.63" y="284" as="targetPoint" />
          </mxGeometry>
        </mxCell>
        <mxCell id="6NBGL7Iew6p-0OX8bnVb-27" value="" style="endArrow=none;dashed=1;html=1;rounded=0;entryX=0.5;entryY=1;entryDx=0;entryDy=0;" parent="1" edge="1">
          <mxGeometry width="50" height="50" relative="1" as="geometry">
            <mxPoint x="1085.04" y="640" as="sourcePoint" />
            <mxPoint x="1084.71" y="263" as="targetPoint" />
          </mxGeometry>
        </mxCell>
        <mxCell id="6NBGL7Iew6p-0OX8bnVb-29" value="" style="endArrow=classic;html=1;rounded=0;" parent="1" edge="1">
          <mxGeometry width="50" height="50" relative="1" as="geometry">
            <mxPoint x="990" y="470" as="sourcePoint" />
            <mxPoint x="1085" y="470" as="targetPoint" />
          </mxGeometry>
        </mxCell>
        <mxCell id="6NBGL7Iew6p-0OX8bnVb-30" value="read package" style="edgeLabel;html=1;align=center;verticalAlign=middle;resizable=0;points=[];" parent="1" vertex="1" connectable="0">
          <mxGeometry x="1030" y="425.00052631578956" as="geometry">
            <mxPoint x="2" y="31" as="offset" />
          </mxGeometry>
        </mxCell>
        <mxCell id="6NBGL7Iew6p-0OX8bnVb-32" value="" style="html=1;labelBackgroundColor=#ffffff;startArrow=none;startFill=0;startSize=6;endArrow=classic;endFill=1;endSize=6;jettySize=auto;orthogonalLoop=1;strokeWidth=1;dashed=1;fontSize=14;rounded=0;" parent="1" edge="1">
          <mxGeometry width="60" height="60" relative="1" as="geometry">
            <mxPoint x="980" y="510.38" as="sourcePoint" />
            <mxPoint x="790" y="510" as="targetPoint" />
          </mxGeometry>
        </mxCell>
        <mxCell id="6NBGL7Iew6p-0OX8bnVb-34" value="" style="html=1;labelBackgroundColor=#ffffff;startArrow=none;startFill=0;startSize=6;endArrow=classic;endFill=1;endSize=6;jettySize=auto;orthogonalLoop=1;strokeWidth=1;dashed=1;fontSize=14;rounded=0;entryX=1.345;entryY=0.909;entryDx=0;entryDy=0;entryPerimeter=0;" parent="1" edge="1" target="6NBGL7Iew6p-0OX8bnVb-36">
          <mxGeometry width="60" height="60" relative="1" as="geometry">
            <mxPoint x="420" y="549.5" as="sourcePoint" />
            <mxPoint x="270" y="549" as="targetPoint" />
          </mxGeometry>
        </mxCell>
        <mxCell id="6NBGL7Iew6p-0OX8bnVb-36" value="" style="rounded=0;whiteSpace=wrap;html=1;" parent="1" vertex="1">
          <mxGeometry x="265" y="246" width="10" height="334" as="geometry" />
        </mxCell>
        <mxCell id="6NBGL7Iew6p-0OX8bnVb-37" value="" style="rounded=0;whiteSpace=wrap;html=1;" parent="1" vertex="1">
          <mxGeometry x="419" y="273" width="10" height="287" as="geometry" />
        </mxCell>
        <mxCell id="6NBGL7Iew6p-0OX8bnVb-38" value="" style="rounded=0;whiteSpace=wrap;html=1;" parent="1" vertex="1">
          <mxGeometry x="980" y="440" width="10" height="80" as="geometry" />
        </mxCell>
        <mxCell id="LDH4q_JOpRBqJmAL8wgg-1" value="&lt;span style=&quot;font-size: 11px;&quot;&gt;view package&lt;/span&gt;&lt;div&gt;&lt;span style=&quot;font-size: 11px;&quot;&gt;&amp;nbsp;(packageID,&amp;nbsp;&lt;/span&gt;&lt;/div&gt;&lt;div&gt;&lt;span style=&quot;font-size: 11px; background-color: initial;&quot;&gt;price, name,&amp;nbsp;&lt;/span&gt;&lt;div&gt;&lt;span style=&quot;font-size: 11px;&quot;&gt;description)&lt;/span&gt;&lt;/div&gt;&lt;/div&gt;" style="text;html=1;align=center;verticalAlign=middle;whiteSpace=wrap;rounded=0;fillColor=#FFFFFF;" vertex="1" parent="1">
          <mxGeometry x="134" y="213" width="118" height="50" as="geometry" />
        </mxCell>
        <mxCell id="LDH4q_JOpRBqJmAL8wgg-2" value="" style="endArrow=classic;html=1;rounded=0;" edge="1" parent="1">
          <mxGeometry width="50" height="50" relative="1" as="geometry">
            <mxPoint x="430" y="320" as="sourcePoint" />
            <mxPoint x="561" y="320" as="targetPoint" />
          </mxGeometry>
        </mxCell>
        <mxCell id="LDH4q_JOpRBqJmAL8wgg-3" value="" style="endArrow=classic;html=1;rounded=0;" edge="1" parent="1">
          <mxGeometry width="50" height="50" relative="1" as="geometry">
            <mxPoint x="570" y="330" as="sourcePoint" />
            <mxPoint x="650" y="330" as="targetPoint" />
          </mxGeometry>
        </mxCell>
        <mxCell id="LDH4q_JOpRBqJmAL8wgg-4" value="" style="endArrow=classic;html=1;rounded=0;" edge="1" parent="1">
          <mxGeometry width="50" height="50" relative="1" as="geometry">
            <mxPoint x="570" y="398" as="sourcePoint" />
            <mxPoint x="780" y="398" as="targetPoint" />
          </mxGeometry>
        </mxCell>
        <mxCell id="LDH4q_JOpRBqJmAL8wgg-5" value="" style="endArrow=classic;html=1;rounded=0;" edge="1" parent="1">
          <mxGeometry width="50" height="50" relative="1" as="geometry">
            <mxPoint x="793" y="410" as="sourcePoint" />
            <mxPoint x="873" y="410" as="targetPoint" />
          </mxGeometry>
        </mxCell>
        <mxCell id="LDH4q_JOpRBqJmAL8wgg-6" value="" style="endArrow=classic;html=1;rounded=0;" edge="1" parent="1">
          <mxGeometry width="50" height="50" relative="1" as="geometry">
            <mxPoint x="790" y="459" as="sourcePoint" />
            <mxPoint x="980" y="459" as="targetPoint" />
          </mxGeometry>
        </mxCell>
        <mxCell id="LDH4q_JOpRBqJmAL8wgg-8" value="" style="html=1;labelBackgroundColor=#ffffff;startArrow=none;startFill=0;startSize=6;endArrow=classic;endFill=1;endSize=6;jettySize=auto;orthogonalLoop=1;strokeWidth=1;dashed=1;fontSize=14;rounded=0;" edge="1" parent="1">
          <mxGeometry width="60" height="60" relative="1" as="geometry">
            <mxPoint x="780" y="520.38" as="sourcePoint" />
            <mxPoint x="570" y="520" as="targetPoint" />
          </mxGeometry>
        </mxCell>
        <mxCell id="LDH4q_JOpRBqJmAL8wgg-9" value="" style="html=1;labelBackgroundColor=#ffffff;startArrow=none;startFill=0;startSize=6;endArrow=classic;endFill=1;endSize=6;jettySize=auto;orthogonalLoop=1;strokeWidth=1;dashed=1;fontSize=14;rounded=0;" edge="1" parent="1">
          <mxGeometry width="60" height="60" relative="1" as="geometry">
            <mxPoint x="560" y="530.38" as="sourcePoint" />
            <mxPoint x="440" y="530" as="targetPoint" />
          </mxGeometry>
        </mxCell>
        <mxCell id="LDH4q_JOpRBqJmAL8wgg-10" value="&lt;span style=&quot;font-size: 11px;&quot;&gt;view package&lt;/span&gt;&lt;div&gt;&lt;span style=&quot;font-size: 11px;&quot;&gt;&amp;nbsp;(packageID,&amp;nbsp;&lt;/span&gt;&lt;span style=&quot;background-color: initial; font-size: 11px;&quot;&gt;price,&amp;nbsp;&lt;/span&gt;&lt;/div&gt;&lt;div&gt;&lt;span style=&quot;font-size: 11px; background-color: initial;&quot;&gt;name,&amp;nbsp;&lt;/span&gt;&lt;span style=&quot;font-size: 11px; background-color: initial;&quot;&gt;description)&lt;/span&gt;&lt;/div&gt;" style="text;html=1;align=center;verticalAlign=middle;whiteSpace=wrap;rounded=0;fillColor=#FFFFFF;" vertex="1" parent="1">
          <mxGeometry x="290" y="237" width="118" height="50" as="geometry" />
        </mxCell>
        <mxCell id="LDH4q_JOpRBqJmAL8wgg-11" value="&lt;span style=&quot;font-size: 11px;&quot;&gt;view package&lt;/span&gt;&lt;div&gt;&lt;span style=&quot;font-size: 11px;&quot;&gt;&amp;nbsp;(packageID,&amp;nbsp;&lt;/span&gt;&lt;span style=&quot;color: rgba(0, 0, 0, 0); font-family: monospace; font-size: 0px; text-align: start; text-wrap-mode: nowrap; background-color: initial;&quot;&gt;%3CmxGraphModel%3E%3Croot%3E%3CmxCell%20id%3D%220%22%2F%3E%3CmxCell%20id%3D%221%22%20parent%3D%220%22%2F%3E%3CmxCell%20id%3D%222%22%20value%3D%22%26lt%3Bspan%20style%3D%26quot%3Bfont-size%3A%2011px%3B%26quot%3B%26gt%3Bview%20package%26lt%3B%2Fspan%26gt%3B%26lt%3Bdiv%26gt%3B%26lt%3Bspan%20style%3D%26quot%3Bfont-size%3A%2011px%3B%26quot%3B%26gt%3B%26amp%3Bnbsp%3B(packageID%2C%26amp%3Bnbsp%3B%26lt%3B%2Fspan%26gt%3B%26lt%3B%2Fdiv%26gt%3B%26lt%3Bdiv%26gt%3B%26lt%3Bspan%20style%3D%26quot%3Bfont-size%3A%2011px%3B%20background-color%3A%20initial%3B%26quot%3B%26gt%3Bprice%2C%20name%2C%26amp%3Bnbsp%3B%26lt%3B%2Fspan%26gt%3B%26lt%3Bdiv%26gt%3B%26lt%3Bspan%20style%3D%26quot%3Bfont-size%3A%2011px%3B%26quot%3B%26gt%3Bdescription)%26lt%3B%2Fspan%26gt%3B%26lt%3B%2Fdiv%26gt%3B%26lt%3B%2Fdiv%26gt%3B%22%20style%3D%22text%3Bhtml%3D1%3Balign%3Dcenter%3BverticalAlign%3Dmiddle%3BwhiteSpace%3Dwrap%3Brounded%3D0%3BfillColor%3D%23FFFFFF%3B%22%20vertex%3D%221%22%20parent%3D%221%22%3E%3CmxGeometry%20x%3D%22134%22%20y%3D%22213%22%20width%3D%22118%22%20height%3D%2250%22%20as%3D%22geometry%22%2F%3E%3C%2FmxCell%3E%3C%2Froot%3E%3C%2FmxGraphModel%3E&lt;/span&gt;&lt;span style=&quot;color: rgba(0, 0, 0, 0); font-family: monospace; font-size: 0px; text-align: start; text-wrap-mode: nowrap; background-color: initial;&quot;&gt;%3CmxGraphModel%3E%3Croot%3E%3CmxCell%20id%3D%220%22%2F%3E%3CmxCell%20id%3D%221%22%20parent%3D%220%22%2F%3E%3CmxCell%20id%3D%222%22%20value%3D%22%26lt%3Bspan%20style%3D%26quot%3Bfont-size%3A%2011px%3B%26quot%3B%26gt%3Bview%20package%26lt%3B%2Fspan%26gt%3B%26lt%3Bdiv%26gt%3B%26lt%3Bspan%20style%3D%26quot%3Bfont-size%3A%2011px%3B%26quot%3B%26gt%3B%26amp%3Bnbsp%3B(packageID%2C%26amp%3Bnbsp%3B%26lt%3B%2Fspan%26gt%3B%26lt%3B%2Fdiv%26gt%3B%26lt%3Bdiv%26gt%3B%26lt%3Bspan%20style%3D%26quot%3Bfont-size%3A%2011px%3B%20background-color%3A%20initial%3B%26quot%3B%26gt%3Bprice%2C%20name%2C%26amp%3Bnbsp%3B%26lt%3B%2Fspan%26gt%3B%26lt%3Bdiv%26gt%3B%26lt%3Bspan%20style%3D%26quot%3Bfont-size%3A%2011px%3B%26quot%3B%26gt%3Bdescription)%26lt%3B%2Fspan%26gt%3B%26lt%3B%2Fdiv%26gt%3B%26lt%3B%2Fdiv%26gt%3B%22%20style%3D%22text%3Bhtml%3D1%3Balign%3Dcenter%3BverticalAlign%3Dmiddle%3BwhiteSpace%3Dwrap%3Brounded%3D0%3BfillColor%3D%23FFFFFF%3B%22%20vertex%3D%221%22%20parent%3D%221%22%3E%3CmxGeometry%20x%3D%22134%22%20y%3D%22213%22%20width%3D%22118%22%20height%3D%2250%22%20as%3D%22geometry%22%2F%3E%3C%2FmxCell%3E%3C%2Froot%3E%3C%2FmxGraphModel%3E&lt;/span&gt;&lt;span style=&quot;background-color: initial; font-size: 11px;&quot;&gt;price, name,&amp;nbsp;&lt;/span&gt;&lt;span style=&quot;background-color: initial; font-size: 11px;&quot;&gt;description)&lt;/span&gt;&lt;/div&gt;" style="text;html=1;align=center;verticalAlign=middle;whiteSpace=wrap;rounded=0;fillColor=#FFFFFF;" vertex="1" parent="1">
          <mxGeometry x="440" y="263" width="118" height="50" as="geometry" />
        </mxCell>
        <mxCell id="LDH4q_JOpRBqJmAL8wgg-12" value="&lt;span style=&quot;font-size: 11px;&quot;&gt;viewpackage&lt;/span&gt;&lt;span style=&quot;background-color: initial; font-size: 11px;&quot;&gt;(packageID,&amp;nbsp;&lt;/span&gt;&lt;span style=&quot;background-color: initial; font-size: 11px;&quot;&gt;price, name,&amp;nbsp;&lt;/span&gt;&lt;span style=&quot;background-color: initial; font-size: 11px;&quot;&gt;description)&lt;/span&gt;" style="text;html=1;align=center;verticalAlign=middle;whiteSpace=wrap;rounded=0;fillColor=#FFFFFF;" vertex="1" parent="1">
          <mxGeometry x="577" y="361" width="190" height="30" as="geometry" />
        </mxCell>
        <mxCell id="LDH4q_JOpRBqJmAL8wgg-13" value="&lt;span style=&quot;font-size: 11px;&quot;&gt;view package&lt;/span&gt;&lt;span style=&quot;background-color: initial; font-size: 11px;&quot;&gt;(packageID,&amp;nbsp;&lt;/span&gt;&lt;span style=&quot;background-color: initial; font-size: 11px;&quot;&gt;price, name,&amp;nbsp;&lt;/span&gt;&lt;span style=&quot;background-color: initial; font-size: 11px;&quot;&gt;description)&lt;/span&gt;" style="text;html=1;align=center;verticalAlign=middle;whiteSpace=wrap;rounded=0;fillColor=#FFFFFF;" vertex="1" parent="1">
          <mxGeometry x="795" y="425" width="180" height="30" as="geometry" />
        </mxCell>
        <mxCell id="LDH4q_JOpRBqJmAL8wgg-16" value="&lt;span style=&quot;font-size: 11px;&quot;&gt;display package&lt;/span&gt;&lt;span style=&quot;font-size: 11px; background-color: initial;&quot;&gt;&amp;nbsp;(packageID,&lt;/span&gt;&lt;div&gt;&lt;span style=&quot;font-size: 11px; background-color: initial;&quot;&gt;&amp;nbsp;&lt;/span&gt;&lt;span style=&quot;background-color: initial; font-size: 11px;&quot;&gt;price, name,&amp;nbsp;&lt;/span&gt;&lt;span style=&quot;font-size: 11px; background-color: initial;&quot;&gt;description)&lt;/span&gt;&lt;/div&gt;" style="text;html=1;align=center;verticalAlign=middle;whiteSpace=wrap;rounded=0;fillColor=#FFFFFF;" vertex="1" parent="1">
          <mxGeometry x="801" y="480" width="174" height="25" as="geometry" />
        </mxCell>
        <mxCell id="LDH4q_JOpRBqJmAL8wgg-19" value="&lt;span style=&quot;font-size: 11px;&quot;&gt;display package&lt;/span&gt;&lt;span style=&quot;font-size: 11px; background-color: initial;&quot;&gt;&amp;nbsp;(packageID,&lt;/span&gt;&lt;div&gt;&lt;span style=&quot;font-size: 11px; background-color: initial;&quot;&gt;&amp;nbsp;&lt;/span&gt;&lt;span style=&quot;background-color: initial; font-size: 11px;&quot;&gt;price, name,&amp;nbsp;&lt;/span&gt;&lt;span style=&quot;font-size: 11px; background-color: initial;&quot;&gt;description)&lt;/span&gt;&lt;/div&gt;" style="text;html=1;align=center;verticalAlign=middle;whiteSpace=wrap;rounded=0;fillColor=#FFFFFF;" vertex="1" parent="1">
          <mxGeometry x="590" y="486" width="174" height="25" as="geometry" />
        </mxCell>
        <mxCell id="LDH4q_JOpRBqJmAL8wgg-20" value="&lt;span style=&quot;font-size: 11px;&quot;&gt;display package&lt;/span&gt;&lt;span style=&quot;font-size: 11px; background-color: initial;&quot;&gt;&amp;nbsp;&lt;/span&gt;&lt;div&gt;&lt;span style=&quot;font-size: 11px; background-color: initial;&quot;&gt;(packageID,&lt;/span&gt;&lt;span style=&quot;background-color: initial; font-size: 11px;&quot;&gt;price, name,&amp;nbsp;&lt;/span&gt;&lt;span style=&quot;background-color: initial; font-size: 11px;&quot;&gt;description)&lt;/span&gt;&lt;/div&gt;" style="text;html=1;align=center;verticalAlign=middle;whiteSpace=wrap;rounded=0;fillColor=#FFFFFF;" vertex="1" parent="1">
          <mxGeometry x="442" y="486" width="111" height="25" as="geometry" />
        </mxCell>
        <mxCell id="LDH4q_JOpRBqJmAL8wgg-21" value="&lt;span style=&quot;font-size: 11px;&quot;&gt;display package&lt;/span&gt;&lt;span style=&quot;font-size: 11px; background-color: initial;&quot;&gt;&amp;nbsp;&lt;/span&gt;&lt;div&gt;&lt;span style=&quot;font-size: 11px; background-color: initial;&quot;&gt;(packageID,&lt;/span&gt;&lt;span style=&quot;background-color: initial; font-size: 11px;&quot;&gt;price, name,&amp;nbsp;&lt;/span&gt;&lt;span style=&quot;background-color: initial; font-size: 11px;&quot;&gt;description)&lt;/span&gt;&lt;/div&gt;" style="text;html=1;align=center;verticalAlign=middle;whiteSpace=wrap;rounded=0;fillColor=#FFFFFF;" vertex="1" parent="1">
          <mxGeometry x="290" y="511" width="114" height="25" as="geometry" />
        </mxCell>
        <mxCell id="LDH4q_JOpRBqJmAL8wgg-22" value="read package" style="edgeLabel;html=1;align=center;verticalAlign=middle;resizable=0;points=[];" vertex="1" connectable="0" parent="1">
          <mxGeometry x="830" y="365.00052631578956" as="geometry">
            <mxPoint x="2" y="31" as="offset" />
          </mxGeometry>
        </mxCell>
        <mxCell id="LDH4q_JOpRBqJmAL8wgg-23" value="read package" style="edgeLabel;html=1;align=center;verticalAlign=middle;resizable=0;points=[];" vertex="1" connectable="0" parent="1">
          <mxGeometry x="608" y="281.00052631578956" as="geometry">
            <mxPoint x="2" y="31" as="offset" />
          </mxGeometry>
        </mxCell>
        <mxCell id="LDH4q_JOpRBqJmAL8wgg-24" value="&lt;b&gt;(Customer) Package&lt;/b&gt;" style="text;html=1;align=center;verticalAlign=middle;whiteSpace=wrap;rounded=0;" vertex="1" parent="1">
          <mxGeometry x="10" y="10" width="200" height="30" as="geometry" />
        </mxCell>
      </root>
    </mxGraphModel>
  </diagram>
</mxfile>
